inDegrees=no
num_controls=7
num_derivatives=13
num_iterations=124
num_multipliers=7
num_parameters=0
num_slacks=7
num_states=26
objective=5.329296
objective_accelerations=0.441065
objective_balance=0.017413
objective_effort=0.379787
objective_height=4.397515
objective_ligament=0.093516
solver_duration=1031.671558
status=Solve_Succeeded
success=true
DataType=double
version=3
OpenSimVersion=4.4-2022-07-23-0e9fedc
endheader
time	/jointset/ground_pelvis/pelvis_tilt/value	/jointset/ground_pelvis/pelvis_tx/value	/jointset/ground_pelvis/pelvis_ty/value	/jointset/hip_r/hip_flexion_r/value	/jointset/hip_r/hip_adduction_r/value	/jointset/hip_r/hip_rotation_r/value	/jointset/back/lumbar_extension/value	/jointset/patellofemoral_r/patellar_flexion_r/value	/jointset/knee_r/knee_flexion_r/value	/jointset/knee_r/knee_adduction_r/value	/jointset/knee_r/knee_rotation_r/value	/jointset/ankle_r/ankle_angle_r/value	/jointset/subtalar_r/subtalar_angle_r/value	/jointset/ground_pelvis/pelvis_tilt/speed	/jointset/ground_pelvis/pelvis_tx/speed	/jointset/ground_pelvis/pelvis_ty/speed	/jointset/hip_r/hip_flexion_r/speed	/jointset/hip_r/hip_adduction_r/speed	/jointset/hip_r/hip_rotation_r/speed	/jointset/back/lumbar_extension/speed	/jointset/patellofemoral_r/patellar_flexion_r/speed	/jointset/knee_r/knee_flexion_r/speed	/jointset/knee_r/knee_adduction_r/speed	/jointset/knee_r/knee_rotation_r/speed	/jointset/ankle_r/ankle_angle_r/speed	/jointset/subtalar_r/subtalar_angle_r/speed	/forceset/tau_hip_flexion_r	/forceset/tau_hip_adduction_r	/forceset/tau_hip_rotation_r	/forceset/tau_knee_flexion_r	/forceset/tau_ankle_angle_r	/forceset/tau_subtalar_angle_r	/forceset/tau_lumbar_extension	lambda_cid13_p0	lambda_cid14_p0	lambda_cid14_p1	lambda_cid14_p2	lambda_cid14_p3	lambda_cid14_p4	lambda_cid14_p5	/jointset/ground_pelvis/pelvis_tilt/accel	/jointset/ground_pelvis/pelvis_tx/accel	/jointset/ground_pelvis/pelvis_ty/accel	/jointset/hip_r/hip_flexion_r/accel	/jointset/hip_r/hip_adduction_r/accel	/jointset/hip_r/hip_rotation_r/accel	/jointset/back/lumbar_extension/accel	/jointset/patellofemoral_r/patellar_flexion_r/accel	/jointset/knee_r/knee_flexion_r/accel	/jointset/knee_r/knee_adduction_r/accel	/jointset/knee_r/knee_rotation_r/accel	/jointset/ankle_r/ankle_angle_r/accel	/jointset/subtalar_r/subtalar_angle_r/accel	gamma_cid13_p0	gamma_cid14_p0	gamma_cid14_p1	gamma_cid14_p2	gamma_cid14_p3	gamma_cid14_p4	gamma_cid14_p5
1.5	-0.0326630761197062	0.05745403848249537	0.8458539101517614	0.6622324089477641	-0.2176742803035186	-0.1554133549973911	-0.6073208031258869	0.8388753955679635	0.8388753955678969	-0.04714139507458241	0.174529470303157	0.3005941287452675	0.1497735483118116	0.3334534282616259	0.1870965704716766	0.3897079806415111	-1.623785364836534	0.009796938890881016	-0.1334582059800035	0.8063204903190302	-1.7034091299773	-1.703409129977502	0.45298567619636	4.771383269374564e-05	-0.5213964622954522	-0.2003489987109482	-0.1265997537099322	0.006836491145259311	0.01684650752938067	-0.2857362453682984	-0.01195857807490825	-0.002981928114769113	0.1905613864417913	-14.62743545462985	-46.34481906603661	-7.643368672858783	-0.3770721844409967	2.117019906174039	-634.5224697726301	62.19928840011275	-0.01028567519608062	0.3530031190711577	-0.4213608033226995	-0.6775279812119011	-0.2084842210995753	-0.6391372750524636	1.42368106313347	-1.108967757011059	-1.108967757010957	0.3190129971892173	-0.00228904689862273	-0.5547825047133133	-0.3351696004092217	7.531048934068534e-08	6.964719003084737e-08	-4.140564280803041e-07	9.564714483253109e-07	3.310202289607269e-09	1.772896749227937e-07	-5.085538775114199e-07
1.51	-0.02932939241691634	0.05934237883968455	0.8497291467412754	0.6459625855649269	-0.2175873468702182	-0.1567791743064034	-0.5991876850175807	0.8217881730524847	0.821788173052411	-0.04259427664999196	0.1745301574278538	0.2953529284256491	0.1477526887475416	0.3332366986651997	0.1905414841792327	0.3852605396189933	-1.629959093851317	0.007577464065098704	-0.1396739742429187	0.82018784852003	-1.713794998643196	-1.713794998643656	0.4564383803241435	7.118787116216946e-05	-0.526773721860423	-0.2037995581913126	-0.1206758339194615	0.005504161708257075	0.01666119369546515	-0.2823178332272557	-0.01025018058752603	-0.003755045461450739	0.1849363265242245	-15.48152495651188	-45.60892640160683	-7.717947228836886	-0.5163425832637509	2.12039099154749	-630.9372155091447	61.9317323330982	-0.03435391028587317	0.3357369970890332	-0.4682230288915677	-0.5542556582341551	-0.2304374449226063	-0.6079073453530268	1.350970775100684	-0.9673549287000919	-0.9673549287386838	0.3584046896691516	0.002021200415911239	-0.5186980859072329	-0.3464809879709204	7.404558182132202e-08	6.087995969370463e-08	-4.707183819996455e-07	8.425507240818319e-07	1.438590123016258e-08	1.670966989874224e-07	-5.252858657222537e-07
1.52	-0.02599927347177682	0.06126426863404779	0.8535575514651291	0.6296376328326201	-0.2175229598514943	-0.1582061734467337	-0.590919351811961	0.8046043001488686	0.8046043001488125	-0.03801263007030674	0.174530550407149	0.2900600554296769	0.1456980272152442	0.3327404767319744	0.1938064579064854	0.3803416075094493	-1.634811234730998	0.005287655975112006	-0.1456941722435129	0.8333635097817214	-1.722739207601942	-1.722739207602659	0.4598913072157765	-1.11152425230205e-05	-0.5317309975661262	-0.2071093923165095	-0.1147519141289643	0.004171832271265065	0.01647587986169425	-0.2788994210861977	-0.008541783100144083	-0.004528162808119469	0.1793112666066788	-16.32965492737626	-44.87582793525844	-7.792558521006787	-0.6561296705355947	2.117890486081456	-627.3908470899675	61.70665413715832	-0.06618414255601993	0.3170151230105596	-0.5156590207279409	-0.4132103541913114	-0.2225508739404572	-0.6000232225882323	1.285341675271715	-0.8206358155807355	-0.8206358155807179	0.3190575499591531	-0.02344447732936861	-0.4707857328596954	-0.3070245293757057	7.91409596324584e-08	5.266861257867111e-08	-6.136480332994292e-07	7.258309013755886e-07	3.351479393086424e-08	1.617204680998775e-07	-5.913638386337637e-07
1.53	-0.02267549476587897	0.06321796410533162	0.8573344824479602	0.6132706308689156	-0.2174816904983726	-0.1596937026080729	-0.5825228207852154	0.7873380842782655	0.7873380842783549	-0.03339756150742892	0.1745303493938039	0.2847199022419539	0.143611269793563	0.3319637522631911	0.1969077116253714	0.3749716233557684	-1.6383696206641	0.002966665122826874	-0.1518291296105758	0.8458248739340507	-1.730259572859954	-1.730259572860588	0.4630666975773807	-2.427738443666777e-05	-0.5362094835527417	-0.2101928233234757	-0.1085184420487997	0.002737206311900315	0.01635768881748097	-0.2763117797585499	-0.005651753596402207	-0.005578480416797035	0.1735263525820337	-17.17034536948198	-43.79708240946189	-7.969911438365435	-0.7305645104314251	1.798517446278665	-624.0707557828641	61.38907583096563	-0.09114072612757271	0.3029569921662351	-0.5585807030846538	-0.2942180448141963	-0.236797053959875	-0.6227147853208689	1.20886054004999	-0.6810973000672029	-0.6810973000546436	0.3083033291575498	0.01054719592954987	-0.4228215670433049	-0.3017008262617635	9.099414060725062e-08	4.504789138712864e-08	-8.482371130659317e-07	6.061370365526581e-07	6.120020500172131e-08	1.614620288256482e-07	-7.098719202897415e-07
1.54	-0.01936102813008762	0.06520192741297223	0.8610555310711752	0.5968746319794941	-0.2174636158263904	-0.1612430779013916	-0.5740052107659793	0.7700039926712481	0.7700039926714876	-0.02875243433095277	0.1745301766147426	0.2793376758872676	0.1414951383738316	0.3308780627108802	0.1998600251778397	0.3691651355862233	-1.640610619874979	0.000648719747039742	-0.158063398639858	0.8575793082798324	-1.7363143548842	-1.736314354884751	0.4659030299348413	-5.468384279333702e-06	-0.5401456309585911	-0.2129841919266262	-0.102284969968609	0.001302580352562709	0.01623949777327638	-0.2737241384308999	-0.002761724092654772	-0.006628798025431547	0.1677414385574069	-18.00247835727238	-42.71995724418846	-8.146516429996259	-0.8062968578866637	1.475730144567911	-620.7764623611487	61.10934991695525	-0.1279771592616566	0.2872270897271218	-0.6029597439007635	-0.1497330097467036	-0.2219417786408391	-0.6198855550320498	1.143955713962137	-0.5275191688276594	-0.5275191688277063	0.2512459491304406	-0.01705024891523893	-0.3623180167063864	-0.2486120486125241	9.74568794644977e-08	3.932108188675333e-08	-9.986512842588579e-07	4.938553077873917e-07	7.92932271941225e-08	1.607569095053431e-07	-7.700471494956431e-07
